<?xml version="1.0" encoding="utf-8"?>
<!-- Generator: Adobe Illustrator 17.1.0, SVG Export Plug-In . SVG Version: 6.00 Build 0)  -->
<!DOCTYPE svg PUBLIC "-//W3C//DTD SVG 1.1//EN" "http://www.w3.org/Graphics/SVG/1.1/DTD/svg11.dtd">
<svg version="1.1" xmlns="http://www.w3.org/2000/svg" xmlns:xlink="http://www.w3.org/1999/xlink" x="0px" y="0px"
	 viewBox="0 0 424.8 234.7" enable-background="new 0 0 424.8 234.7" xml:space="preserve">
<g id="Ebene_1">
	<g>
		<path d="M90.2,85.6c-1.9-16.6-13-28.8-25.1-27.2c-11.8,1.6-19.9,16.4-18,33c1.8,15.6,11.6,27.3,22.9,27.3c0.7,0,1.5,0,2.2-0.1
			C84.1,116.9,92.2,102.1,90.2,85.6z M71.4,112.4c-8.5,1.2-16.6-8.8-18.1-21.8c-1.5-13,4.3-25,12.7-26.1c0.4-0.1,0.9-0.1,1.3-0.1
			c7.2,0,13.8,7.8,16.1,18.2c-2.4-6.4-7.3-10.6-12.5-9.9c-6.6,0.9-10.9,9-9.8,18.5c1,8.8,6.5,15.5,12.7,15.5c0.4,0,0.8,0,1.2-0.1
			c3.2-0.4,5.8-2.6,7.6-5.8C80.4,107.2,76.4,111.7,71.4,112.4z"/>
		<path d="M416.3,8.1c-10.2-3.9-23.7,13.6-48.8,47.3c-18.5,24.9-41.5,55.7-65.6,77.2c-6.4-6.6-10.8-12.8-14.2-17.3l-1.6-2.1
			c-2.2-3-5.1-7.6-8.5-12.9C258.4,69.8,218.3,6.4,153.6,0.7C81.8-5.7,50.3,34.3,40.1,51.8c-16.9,29-32.8,49.6-35.3,52.7
			c-2.9,0.7-4.1,2.2-4.6,3.4c-1.1,3,1.2,5.9,2.8,7.7l1,1c1.6,1.5,1.4,3.9,0.9,8.1l-0.1,0.6c-0.1,0.5-0.4,2.6-0.9,5.2
			c-2,11-2.1,12.2-1.9,13.1c1,5.5,4.3,6.3,6.3,6.3c0.2,0,0.3,0.1,0.5,0.1c0.1,0,9.7,1,20.8,23.4C47,207.3,71,227.3,101,233
			c6.1,1.2,12.3,1.7,18.7,1.7c60,0,130.4-49.1,181.9-93.6c19.2,18.1,52.2,37.8,111.6,37.8c1.4,0,3.3,0,4.8-1.5
			c1.8-1.9,1.7-4.3,1.5-11.7c-0.4-12-1.3-39.9,4-101.8C426.6,27.4,424.5,11.2,416.3,8.1z M12.7,119c0,0.5-0.1,1.1-0.1,1.7
			c0,0.8-0.1,1.6-0.2,2.4c-0.1,0.7-0.1,1.3-0.2,2c-0.1,0.7-0.2,1.5-0.3,2.2c-0.1,0.7-0.2,1.4-0.3,2.1c-0.1,0.7-0.2,1.4-0.3,2.1
			c-0.1,0.7-0.2,1.3-0.4,2c-0.1,0.7-0.3,1.3-0.4,2c-0.1,0.6-0.3,1.2-0.4,1.7c-0.1,0.6-0.3,1.2-0.4,1.7c-0.1,0.5-0.3,1-0.4,1.4
			c-0.1,0.5-0.3,0.9-0.4,1.3c-0.1,0.4-0.3,0.7-0.4,1c-0.1,0.2-0.2,0.3-0.2,0.5c0-0.2-0.1-0.3-0.1-0.6c0.1-1.5,1.2-7.5,1.9-10.9
			c1-5.4,1-5.6,1-6.3c0.5-4.5,1-9-2.1-12.6L8.1,112c-0.6-0.6-1-1.1-1.3-1.5l0.3,0c0,0,0,0,0.1,0c0.1,0,0.2,0,0.3,0
			c0.4,0,0.9,0.1,1.3,0.1c0.3,0.1,0.6,0.1,0.9,0.2c0.3,0.1,0.6,0.2,0.9,0.4c0.2,0.1,0.3,0.2,0.5,0.3c0.4,0.3,0.6,0.6,0.9,1
			c0.1,0.1,0.2,0.3,0.3,0.4c0.3,0.6,0.5,1.4,0.5,2.3C12.8,116.5,12.8,117.7,12.7,119z M102.1,226.9c-28-5.3-50.5-24.2-66.9-56
			c-8.3-16.7-16.2-23-21.1-25.4c3.3-7.4,5.1-23,4.8-30.4c-0.1-2.6-0.9-4.6-2-6.2c-0.1-0.2-0.2-0.4-0.3-0.5c-0.2-0.2-0.4-0.5-0.6-0.7
			c-0.2-0.2-0.3-0.4-0.5-0.5c-0.1-0.1-0.2-0.1-0.3-0.2c-0.2-0.2-0.5-0.4-0.8-0.6c-0.3-0.2-0.6-0.4-0.9-0.5c-0.2-0.1-0.5-0.3-0.7-0.4
			c-0.3-0.1-0.5-0.2-0.8-0.3c5.7-7.5,19.2-26,33.3-50.3C55,38.5,84.6,0.9,153,6.9c61.6,5.4,100.6,67.1,119.4,96.7
			c3.6,5.6,6.4,10.1,8.7,13.3l1.5,2.1c3.4,4.7,8,11,14.5,17.7C241.2,185,163.2,238.5,102.1,226.9z M417.2,63.3
			c-5.4,62.2-4.4,90.5-4,102.5c0.1,2.9,0.2,5.4,0.1,6.8c-0.1,0-0.1,0-0.2,0c-56.7,0-88.4-18.5-106.8-35.7
			c24.5-21.9,47.6-52.9,66.2-77.9c16.6-22.3,35.3-47.6,41.6-45.2C416.2,14.7,420.9,21.2,417.2,63.3z"/>
		<path d="M180.3,70.3c-3.2-3.7-9.2-2.3-13.4-1c-33.1,10.5-58.6,35.9-59.7,37C117.3,50.9,88.8,23.4,88.4,23
			c-1.2-1.2-3.2-1.1-4.4,0.2c-1.2,1.3-1.1,3.2,0.2,4.4c0.6,0.5,56.4,54.3-25.3,167c-1,1.4-0.7,3.3,0.7,4.3c0.5,0.4,1.2,0.6,1.8,0.6
			c1,0,1.9-0.4,2.5-1.3c25.2-34.8,37.6-64.2,42.6-88.6c0.2,0.4,0.4,0.8,0.7,1.1c1.2,1.2,3.2,1.2,4.4,0c0.2-0.3,25.6-25.3,57.2-35.4
			c5.5-1.8,6.8-0.9,6.8-0.9c1.8,2.1-4.8,15.7-8.7,23.8c-8.1,16.6-17.2,35.4-13.7,48.7c1.9,7,0.7,8.3,0.7,8.3
			c-1.7,1.4-11.9-3.8-18-6.8c-7.1-3.5-15-7.5-23.1-10.1c-1.6-0.5-3.4,0.4-3.9,2c-0.5,1.6,0.4,3.4,2,3.9c7.7,2.5,15.4,6.4,22.3,9.8
			c8.7,4.3,15.3,7.6,20.1,7.6c1.8,0,3.4-0.5,4.7-1.5c3.8-3.1,2.7-9.5,1.4-14.7c-2.9-11,6.1-29.5,13.3-44.4
			C179.9,85.6,184.8,75.5,180.3,70.3z"/>
	</g>
</g>
<g id="subline">
</g>
</svg>
